<?xml version="1.0" encoding="utf-8"?>
<svg viewBox="0 0 312.578 229.763" xmlns="http://www.w3.org/2000/svg">
  <defs>
    <linearGradient spreadMethod="pad" y2="0" x2=".512" y1="1" x1=".516" id="a">
      <stop offset="0" stop-opacity=".988" stop-color="#7090bd"/>
      <stop offset="0.519" stop-opacity=".988" stop-color="#0b3d8a"/>
      <stop offset="1" stop-opacity=".988" stop-color="#7090bd"/>
      <stop offset="1" stop-opacity="0" stop-color="0"/>
      <stop offset="1" stop-opacity="0" stop-color="0"/>
      <stop offset="1" stop-opacity="0" stop-color="0"/>
      <stop offset="1" stop-opacity="0" stop-color="0"/>
      <stop offset="1" stop-opacity="0" stop-color="0"/>
      <stop offset="1" stop-opacity="0" stop-color="0"/>
    </linearGradient>
    <linearGradient spreadMethod="pad" y2="0" x2=".453" y1="1" x1=".457" id="b">
      <stop offset="0" stop-opacity=".992" stop-color="#7090bd"/>
      <stop offset="0.363" stop-opacity=".977" stop-color="#375f91"/>
      <stop offset="0.727" stop-opacity=".965" stop-color="#013791"/>
      <stop offset="1" stop-opacity=".984" stop-color="#7090bd"/>
      <stop offset="1" stop-opacity="0" stop-color="0"/>
      <stop offset="1" stop-opacity="0" stop-color="0"/>
      <stop offset="1" stop-opacity="0" stop-color="0"/>
      <stop offset="1" stop-opacity="0" stop-color="0"/>
      <stop offset="1" stop-opacity="0" stop-color="0"/>
      <stop offset="1" stop-opacity="0" stop-color="0"/>
      <stop offset="1" stop-opacity="0" stop-color="0"/>
      <stop offset="1" stop-opacity="0" stop-color="0"/>
      <stop offset="1" stop-opacity="0" stop-color="0"/>
      <stop offset="1" stop-opacity="0" stop-color="0"/>
      <stop offset="1" stop-opacity="0" stop-color="0"/>
      <stop offset="1" stop-opacity="0" stop-color="0"/>
      <stop offset="1" stop-opacity="0" stop-color="0"/>
      <stop offset="1" stop-opacity="0" stop-color="0"/>
      <stop offset="1" stop-opacity="0" stop-color="0"/>
      <stop offset="1" stop-opacity="0" stop-color="0"/>
      <stop offset="1" stop-opacity="0" stop-color="0"/>
      <stop offset="1" stop-opacity="0" stop-color="0"/>
      <stop offset="1" stop-opacity="0" stop-color="0"/>
      <stop offset="1" stop-opacity="0" stop-color="0"/>
      <stop offset="1" stop-opacity="0" stop-color="0"/>
      <stop offset="1" stop-opacity="0" stop-color="0"/>
      <stop offset="1" stop-opacity="0" stop-color="0"/>
      <stop offset="1" stop-opacity="0" stop-color="0"/>
      <stop offset="1" stop-opacity="0" stop-color="0"/>
      <stop offset="1" stop-opacity="0" stop-color="0"/>
      <stop offset="1" stop-opacity="0" stop-color="0"/>
      <stop offset="1" stop-opacity="0" stop-color="0"/>
      <stop offset="1" stop-opacity="0" stop-color="0"/>
      <stop offset="1" stop-opacity="0" stop-color="0"/>
      <stop offset="1" stop-opacity="0" stop-color="0"/>
      <stop offset="1" stop-opacity="0" stop-color="0"/>
      <stop offset="1" stop-opacity="0" stop-color="0"/>
      <stop offset="1" stop-opacity="0" stop-color="0"/>
      <stop offset="1" stop-opacity="0" stop-color="0"/>
      <stop offset="1" stop-opacity="0" stop-color="0"/>
      <stop offset="1" stop-opacity="0" stop-color="0"/>
      <stop offset="1" stop-opacity="0" stop-color="0"/>
      <stop offset="1" stop-opacity="0" stop-color="0"/>
      <stop offset="1" stop-opacity="0" stop-color="0"/>
      <stop offset="1" stop-opacity="0" stop-color="0"/>
      <stop offset="1" stop-opacity="0" stop-color="0"/>
      <stop offset="1" stop-opacity="0" stop-color="0"/>
      <stop offset="1" stop-opacity="0" stop-color="0"/>
      <stop offset="1" stop-opacity="0" stop-color="0"/>
      <stop offset="1" stop-opacity="0" stop-color="0"/>
      <stop offset="1" stop-opacity="0" stop-color="0"/>
      <stop offset="1" stop-opacity="0" stop-color="0"/>
      <stop offset="1" stop-opacity="0" stop-color="0"/>
      <stop offset="1" stop-opacity="0" stop-color="0"/>
      <stop offset="1" stop-opacity="0" stop-color="0"/>
      <stop offset="1" stop-opacity="0" stop-color="0"/>
      <stop offset="1" stop-opacity="0" stop-color="0"/>
      <stop offset="1" stop-opacity="0" stop-color="0"/>
      <stop offset="1" stop-opacity="0" stop-color="0"/>
      <stop offset="1" stop-opacity="0" stop-color="0"/>
      <stop offset="1" stop-opacity="0" stop-color="0"/>
      <stop offset="1" stop-opacity="0" stop-color="0"/>
      <stop offset="1" stop-opacity="0" stop-color="0"/>
      <stop offset="1" stop-opacity="0" stop-color="0"/>
      <stop offset="1" stop-opacity="0" stop-color="0"/>
      <stop offset="1" stop-opacity="0" stop-color="0"/>
      <stop offset="1" stop-opacity="0" stop-color="0"/>
      <stop offset="1" stop-opacity="0" stop-color="0"/>
      <stop offset="1" stop-opacity="0" stop-color="0"/>
      <stop offset="1" stop-opacity="0" stop-color="0"/>
      <stop offset="1" stop-opacity="0" stop-color="0"/>
      <stop offset="1" stop-opacity="0" stop-color="0"/>
      <stop offset="1" stop-opacity="0" stop-color="0"/>
      <stop offset="1" stop-opacity="0" stop-color="0"/>
      <stop offset="1" stop-opacity="0" stop-color="0"/>
      <stop offset="1" stop-opacity="0" stop-color="0"/>
      <stop offset="1" stop-opacity="0" stop-color="0"/>
      <stop offset="1" stop-opacity="0" stop-color="0"/>
      <stop offset="1" stop-opacity="0" stop-color="0"/>
      <stop offset="1" stop-opacity="0" stop-color="0"/>
      <stop offset="1" stop-opacity="0" stop-color="0"/>
      <stop offset="1" stop-opacity="0" stop-color="0"/>
      <stop offset="1" stop-opacity="0" stop-color="0"/>
      <stop offset="1" stop-opacity="0" stop-color="0"/>
      <stop offset="1" stop-opacity="0" stop-color="0"/>
      <stop offset="1" stop-opacity="0" stop-color="0"/>
      <stop offset="1" stop-opacity="0" stop-color="0"/>
      <stop offset="1" stop-opacity="0" stop-color="0"/>
      <stop offset="1" stop-opacity="0" stop-color="0"/>
      <stop offset="1" stop-opacity="0" stop-color="0"/>
      <stop offset="1" stop-opacity="0" stop-color="0"/>
      <stop offset="1" stop-opacity="0" stop-color="0"/>
      <stop offset="1" stop-opacity="0" stop-color="0"/>
      <stop offset="1" stop-opacity="0" stop-color="0"/>
      <stop offset="1" stop-opacity="0" stop-color="0"/>
      <stop offset="1" stop-opacity="0" stop-color="0"/>
      <stop offset="1" stop-opacity="0" stop-color="0"/>
      <stop offset="1" stop-opacity="0" stop-color="0"/>
      <stop offset="1" stop-opacity="0" stop-color="0"/>
      <stop offset="1" stop-opacity="0" stop-color="0"/>
      <stop offset="1" stop-opacity="0" stop-color="0"/>
      <stop offset="1" stop-opacity="0" stop-color="0"/>
      <stop offset="1" stop-opacity="0" stop-color="0"/>
      <stop offset="1" stop-opacity="0" stop-color="0"/>
      <stop offset="1" stop-opacity="0" stop-color="0"/>
      <stop offset="1" stop-opacity="0" stop-color="0"/>
      <stop offset="1" stop-opacity="0" stop-color="0"/>
      <stop offset="1" stop-opacity="0" stop-color="0"/>
      <stop offset="1" stop-opacity="0" stop-color="0"/>
      <stop offset="1" stop-opacity="0" stop-color="0"/>
      <stop offset="1" stop-opacity="0" stop-color="0"/>
      <stop offset="1" stop-opacity="0" stop-color="0"/>
      <stop offset="1" stop-opacity="0" stop-color="0"/>
      <stop offset="1" stop-opacity=".996" stop-color="#00f"/>
    </linearGradient>
  </defs>
  <path d="M 122.208 53.007 L 61.076 155.241 L 34.224 155.241 L 16.248 53.007 L 40.397 53.007 L 49.426 118.672 C 49.851 122.205 50.208 125.59 50.496 128.826 C 50.784 132.068 51.01 135.118 51.172 137.974 C 52.386 135.409 53.507 133.122 54.534 131.114 C 55.565 129.106 56.448 127.353 57.183 125.854 L 97.816 53.007 L 122.208 53.007 Z" style="white-space:pre" fill="url(#a)"/>
  <path d="M 176.691 105.114 L 160.413 80.33 L 97.66 224.724 L 164.141 132.522 L 179.414 155.015 L 254.188 8.775 L 176.691 105.113 L 176.691 105.114 Z" fill="#fff200"/>
  <path d="M 160.066 119.169 C 160.066 123.059 159.689 126.75 158.934 130.243 C 158.179 133.736 157.027 136.993 155.479 140.013 C 152.382 146.093 148.011 150.776 142.366 154.06 C 136.721 157.346 130.349 158.988 123.25 158.988 C 115.019 158.988 108.505 156.77 103.71 152.333 C 98.914 147.896 96.516 141.826 96.516 134.123 C 96.516 126.533 98.026 119.812 101.047 113.959 C 104.068 108.106 108.344 103.565 113.877 100.336 C 119.408 97.108 125.723 95.494 132.822 95.494 C 141.696 95.494 148.455 97.562 153.1 101.696 C 157.745 105.831 160.067 111.655 160.067 119.169 L 160.066 119.169 Z M 143.414 120.359 C 143.414 111.033 139.487 106.369 131.633 106.369 C 127.366 106.369 123.949 107.502 121.381 109.767 C 119.682 111.278 118.218 113.345 116.991 115.969 C 115.764 118.594 114.83 121.445 114.188 124.522 C 113.546 127.6 113.225 130.573 113.225 133.442 C 113.225 138.352 114.207 142.024 116.17 144.459 C 118.133 146.895 121.079 148.113 125.006 148.113 C 127.121 148.113 129.018 147.84 130.698 147.292 C 132.379 146.744 133.842 145.942 135.088 144.884 C 137.543 142.77 139.478 139.541 140.894 135.199 C 142.31 130.857 143.15 125.91 143.414 120.359 L 143.414 120.359 Z M 198.006 73.8 L 181.636 157.855 L 165.777 157.855 L 182.09 73.8 L 198.006 73.8 Z M 217.312 158.761 C 212.629 158.761 209.004 157.657 206.437 155.448 C 203.869 153.239 202.585 150.096 202.585 146.018 C 202.585 143.224 202.887 140.259 203.492 137.125 L 209.269 107.332 L 200.886 107.332 L 202.982 96.57 L 212.158 96.57 L 219.918 82.183 L 229.886 82.183 L 227.167 96.57 L 238.609 96.57 L 236.626 107.332 L 225.016 107.332 L 219.126 137.634 C 218.71 139.824 218.502 141.505 218.502 142.675 C 218.502 144.413 218.946 145.706 219.833 146.555 C 220.72 147.405 221.919 147.83 223.43 147.83 C 224.714 147.83 226.753 147.585 229.547 147.093 L 227.735 157.402 C 224.676 158.309 221.202 158.762 217.313 158.762 L 217.312 158.761 Z M 285.165 158.421 C 281.389 158.421 278.482 157.628 276.443 156.042 C 274.404 154.457 273.384 152.361 273.384 149.755 C 273.384 149.038 273.412 148.377 273.469 147.773 C 273.526 147.169 273.592 146.622 273.667 146.13 L 273.327 146.13 C 270.156 151.04 267.022 154.41 263.925 156.24 C 260.829 158.072 257.053 158.988 252.597 158.988 C 247.31 158.988 243.09 157.412 239.937 154.258 C 236.784 151.105 235.208 147.055 235.208 142.108 C 235.208 135.123 237.615 129.846 242.43 126.278 C 247.245 122.71 255.051 120.831 265.85 120.642 L 276.67 120.472 C 277.463 116.886 277.859 114.412 277.859 113.052 C 277.859 110.636 277.264 108.823 276.074 107.615 C 274.885 106.407 273.082 105.802 270.665 105.802 C 267.116 105.802 264.472 106.492 262.735 107.87 C 260.998 109.248 259.809 111.24 259.167 113.845 L 244.271 112.089 C 245.555 106.652 248.453 102.517 252.965 99.685 C 257.478 96.853 263.472 95.437 270.949 95.437 C 278.765 95.437 284.495 96.816 288.139 99.572 C 291.783 102.329 293.605 106.52 293.605 112.146 C 293.605 113.544 293.152 116.508 292.245 121.039 L 288.224 141.033 C 287.922 142.845 287.771 144.205 287.771 145.111 C 287.771 146.659 288.3 147.66 289.357 148.113 C 290.414 148.567 291.377 148.793 292.245 148.793 C 293.492 148.793 294.662 148.661 295.757 148.396 L 294.964 157.176 C 293.378 157.78 291.773 158.139 290.15 158.251 C 288.526 158.365 286.864 158.421 285.165 158.421 L 285.165 158.421 Z M 251.465 139.447 C 251.465 142.091 252.21 144.158 253.701 145.649 C 255.193 147.141 257.204 147.886 259.734 147.886 C 262.754 147.886 265.511 146.754 268.004 144.488 C 269.325 143.318 270.467 141.892 271.43 140.211 C 272.393 138.531 273.138 136.653 273.667 134.576 L 274.913 129.365 L 265.738 129.365 C 263.51 129.403 261.509 129.657 259.734 130.129 C 257.959 130.601 256.449 131.272 255.202 132.14 C 253.994 132.971 253.069 134.009 252.427 135.255 C 251.785 136.502 251.464 137.899 251.464 139.447 L 251.465 139.447 Z" style="white-space:pre" fill="url(#b)"/>
  <text font-family="'Archivo'" font-size="20" y="184.193" x="133.964"  stroke-width="0" stroke="#000" fill="#666" style="white-space:pre" transform="matrix(0.98313, 0, 0, 1, 7.916063, 0.744206)">Servicios Eléctricos</text>
</svg>